<svg width="32" height="32" viewBox="0 0 32 32" fill="none" xmlns="http://www.w3.org/2000/svg">
<g clip-path="url(#clip0_724_2)">
<path d="M16 32C24.8366 32 32 24.8366 32 16C32 7.16344 24.8366 0 16 0C7.16344 0 0 7.16344 0 16C0 24.8366 7.16344 32 16 32Z" fill="url(#paint0_linear_724_2)"/>
<path d="M22 16H18C16.8954 16 16 16.8954 16 18V22C16 23.1046 16.8954 24 18 24H22C23.1046 24 24 23.1046 24 22V18C24 16.8954 23.1046 16 22 16Z" fill="white" fill-opacity="0.4"/>
<path d="M18 12H14C12.8954 12 12 12.8954 12 14V18C12 19.1046 12.8954 20 14 20H18C19.1046 20 20 19.1046 20 18V14C20 12.8954 19.1046 12 18 12Z" fill="white" fill-opacity="0.5"/>
<path d="M14 8H10C8.89543 8 8 8.89543 8 10V14C8 15.1046 8.89543 16 10 16H14C15.1046 16 16 15.1046 16 14V10C16 8.89543 15.1046 8 14 8Z" fill="white"/>
</g>
<defs>
<linearGradient id="paint0_linear_724_2" x1="26.5" y1="4" x2="7.5" y2="29.5" gradientUnits="userSpaceOnUse">
<stop stop-color="#688EEF"/>
<stop offset="1" stop-color="#A57EEC"/>
</linearGradient>
<clipPath id="clip0_724_2">
<rect width="32" height="32" fill="white"/>
</clipPath>
</defs>
</svg>
