<svg xmlns="http://www.w3.org/2000/svg" fill="none" viewBox="40 0 1083 196">
  <path
    fill="#E31E24"
    fill-rule="evenodd"
    d="M112.021 40a60 60 0 1 1-55.452 37.03A59.997 59.997 0 0 1 112.021 40Zm0 12.103a47.907 47.907 0 0 1 44.253 29.577 47.902 47.902 0 1 1-92.16 18.315 47.897 47.897 0 0 1 47.907-47.892Zm12.596 59.761a9.046 9.046 0 0 1 12.784-.385 9.046 9.046 0 0 1 .385 12.784 35.5 35.5 0 0 1-35.349 9.989 35.512 35.512 0 0 1-25.273-26.657 35.502 35.502 0 0 1 48.15-40.427 35.982 35.982 0 0 1 11.432 7.514 9.039 9.039 0 1 1-12.674 12.888 16.96 16.96 0 0 0-12.181-4.942 17.386 17.386 0 0 0-15.986 24.311 17.39 17.39 0 0 0 21.51 9.551 17.381 17.381 0 0 0 7.166-4.626h.036Zm-12.596-18.526a6.665 6.665 0 0 1 6.164 4.115 6.671 6.671 0 0 1-4.863 9.092 6.661 6.661 0 0 1-6.844-2.843 6.664 6.664 0 0 1-1.119-3.707 6.661 6.661 0 0 1 6.662-6.657Z"
    clip-rule="evenodd"
  />
  <path
    fill="#E31E24"
    d="M276.332 116.334a12.62 12.62 0 0 1 9.256-3.592 12.628 12.628 0 0 1 7.554 22.412 47.722 47.722 0 0 1-79.14-36.385 47.72 47.72 0 0 1 13.67-32.965 47.628 47.628 0 0 1 65.93-1.4 12.597 12.597 0 0 1 4.072 8.728 12.59 12.59 0 0 1-3.292 9.052A12.592 12.592 0 0 1 280.8 85.51a12.578 12.578 0 0 1-4.198-2.546 21.733 21.733 0 0 0-7-4.37 22.484 22.484 0 0 0-20.841 2.427 22.485 22.485 0 0 0-9.759 18.573 22.461 22.461 0 0 0 19.749 22.294 22.454 22.454 0 0 0 10.671-1.294 22.853 22.853 0 0 0 6.91-4.26Zm78.79-64.51a47.733 47.733 0 0 1 46.82 38.404 47.732 47.732 0 0 1-60.644 55.007 47.728 47.728 0 0 1-19.936-79.41 47.474 47.474 0 0 1 33.76-14Zm15.88 31.85a22.48 22.48 0 1 0 6.57 15.88 22.325 22.325 0 0 0-6.57-15.88Zm41.31 12.17v-2.18c.005-.815.082-1.628.23-2.43a43.997 43.997 0 0 1 46.019-39.17 44 44 0 0 1 41.721 43.72v39.13a12.64 12.64 0 0 1-25.28 0v-39.13a18.714 18.714 0 0 0-18.661-18.325 18.71 18.71 0 0 0-18.749 18.235v39.22a12.64 12.64 0 0 1-25.28 0v-39.07Zm98.73-18.69a12.639 12.639 0 0 1-8.938-21.578 12.639 12.639 0 0 1 8.938-3.702h54.22a12.638 12.638 0 0 1 12.64 12.64 12.639 12.639 0 0 1-12.64 12.64h-14.48v57.81a12.64 12.64 0 0 1-25.28 0v-57.81h-14.46Zm78.13-12.64a12.638 12.638 0 0 1 12.64-12.64 12.638 12.638 0 0 1 12.64 12.64v70.45a12.64 12.64 0 0 1-25.28 0v-70.45Zm40.5 31.33v-2.18c.004-.816.084-1.63.24-2.43a43.997 43.997 0 0 1 46.038-39.352 43.999 43.999 0 0 1 41.722 43.902v39.13a12.64 12.64 0 0 1-25.28 0v-39.13a18.714 18.714 0 0 0-18.661-18.325 18.71 18.71 0 0 0-18.749 18.235v39.22a12.64 12.64 0 0 1-25.28 0l-.03-39.07Zm181 0v-2.18c.004-.816.084-1.63.24-2.43a43.997 43.997 0 0 1 46.038-39.352 44 44 0 0 1 41.722 43.902v39.13a12.64 12.64 0 0 1-25.28 0v-39.13a18.714 18.714 0 0 0-18.661-18.325 18.71 18.71 0 0 0-18.749 18.235v39.22a12.64 12.64 0 0 1-25.28 0l-.03-39.07Zm-55-10.83a4.506 4.506 0 0 0 3.27 1.37h27a12.638 12.638 0 0 1 12.64 12.64 12.64 12.64 0 0 1-12.64 12.64h-27a4.584 4.584 0 0 0-3.27 1.37 4.472 4.472 0 0 0-1.37 3.27 4.633 4.633 0 0 0 4.64 4.64h27a12.64 12.64 0 0 1 0 25.28h-27a29.911 29.911 0 0 1-24.27-47.2 29.91 29.91 0 0 1 24.42-47.2h27a12.638 12.638 0 0 1 12.64 12.64 12.639 12.639 0 0 1-12.64 12.64h-27a4.635 4.635 0 0 0-3.284 1.356 4.637 4.637 0 0 0-1.356 3.284 4.462 4.462 0 0 0 1.33 3.27h-.11Zm157.88-7.86a12.639 12.639 0 0 1-8.938-21.578 12.639 12.639 0 0 1 8.938-3.702h54.22a12.638 12.638 0 0 1 12.64 12.64 12.639 12.639 0 0 1-12.64 12.64h-14.49v57.81a12.64 12.64 0 0 1-25.28 0v-57.81h-14.45Zm99.118 7.86c.43.437.94.783 1.5 1.019a4.58 4.58 0 0 0 1.78.351h27a12.64 12.64 0 0 1 12.64 12.64c0 3.352-1.33 6.567-3.7 8.938a12.65 12.65 0 0 1-8.94 3.702h-27c-1.23.005-2.4.496-3.27 1.365a4.68 4.68 0 0 0-1.37 3.275c.01 1.235.5 2.419 1.36 3.3a4.655 4.655 0 0 0 3.28 1.34h27c3.35 0 6.57 1.332 8.94 3.702a12.642 12.642 0 0 1-8.94 21.578h-27a29.856 29.856 0 0 1-15.55-4.355 29.9 29.9 0 0 1-8.868-42.845 29.91 29.91 0 0 1-2.159-31.034 29.883 29.883 0 0 1 11.027-11.81 29.859 29.859 0 0 1 15.55-4.356h27a12.64 12.64 0 0 1 12.64 12.64 12.64 12.64 0 0 1-12.64 12.64h-27a4.573 4.573 0 0 0-1.77.342c-.57.23-1.08.57-1.51.998a4.785 4.785 0 0 0-1.36 3.3c0 1.227.49 2.403 1.36 3.27Z"
  />
</svg>
