<svg width="2500" height="853" viewBox="0 0 2500 853" fill="none" xmlns="http://www.w3.org/2000/svg">
<g clip-path="url(#clip0_665_21)">
<path fill-rule="evenodd" clip-rule="evenodd" d="M625.661 299.116C633.962 296.068 644.532 289.155 647.995 286.445C642.327 283.591 638.138 280.556 632.561 275.057C627.256 269.83 615.117 245.823 568.049 245.823C517.325 245.823 495.847 280.881 495.847 308.636C495.847 311.891 495.691 316.119 496.469 320.153C430.868 351.177 371.895 386.338 306.449 466.283H473.604C464.071 470.006 449.415 475.751 438.015 485.53L451.775 533.609C473.953 532.269 495.72 527.031 516.08 518.136C530.541 511.6 593.755 482.599 617.944 402.796C620.123 394.729 630.084 353.226 631.329 347.026C632.561 340.827 636.452 326.262 648.54 317.728C645.297 314.848 635.894 307.378 625.7 302.799C622.198 301.502 622.198 300.4 625.661 299.116Z" fill="#CC2131"/>
<path fill-rule="evenodd" clip-rule="evenodd" d="M573.173 273.67C569.831 273.672 566.523 274.331 563.436 275.612C560.349 276.892 557.545 278.768 555.183 281.132C552.822 283.496 550.949 286.303 549.671 289.391C548.394 292.479 547.738 295.788 547.739 299.13C547.741 302.471 548.401 305.78 549.681 308.867C550.962 311.953 552.837 314.757 555.202 317.119C557.566 319.481 560.372 321.354 563.46 322.631C566.548 323.908 569.857 324.565 573.199 324.563C579.948 324.56 586.419 321.876 591.189 317.101C595.958 312.326 598.636 305.852 598.633 299.104C598.629 292.355 595.945 285.884 591.17 281.114C586.396 276.344 579.922 273.666 573.173 273.67Z" fill="#2F9C5C"/>
<path fill-rule="evenodd" clip-rule="evenodd" d="M517.987 155.645H279.654L201.044 385.404H324.711C328.745 382.213 334.503 377.492 341.948 372.603L396.278 197.135L433.398 318.337C440.932 314.328 448.543 310.462 456.224 306.742C459.272 258.806 495.004 231.959 542.084 226.472L517.987 155.645ZM169.982 476.737L110.295 650.389H254.765L297.578 513.675H200.188C203.664 502.093 210.979 486.166 218.281 476.789L169.982 476.737Z" fill="#CC2131"/>
<path fill-rule="evenodd" clip-rule="evenodd" d="M477.975 530.186L514.381 650.39H551.915L512.111 519.732C503.33 523.546 490.192 527.683 477.975 530.186Z" fill="#2F9C5C"/>
<path fill-rule="evenodd" clip-rule="evenodd" d="M615.545 437.478C602.315 463.041 577.427 500.018 525.197 525.737L562.187 650.389H688.24C688.227 650.389 615.571 437.426 615.545 437.478Z" fill="#CC2131"/>
<path fill-rule="evenodd" clip-rule="evenodd" d="M708.007 297.846C699.084 294.292 682.768 288.572 662.729 288.572C656.867 288.572 651.251 288.001 647.996 286.458C644.52 289.169 633.962 296.082 625.662 299.13C622.199 300.414 622.199 301.516 625.675 302.8C635.869 307.391 645.259 314.862 648.514 317.728C663.339 306.898 675.79 316.301 708.02 301.542C711.483 300.258 711.457 299.13 708.007 297.846ZM156.221 429.061C156.391 429.064 156.559 429.101 156.715 429.169C156.872 429.238 157.013 429.336 157.131 429.459C157.249 429.582 157.341 429.726 157.403 429.885C157.465 430.044 157.496 430.213 157.492 430.384C157.492 430.552 157.459 430.718 157.394 430.873C157.329 431.028 157.235 431.169 157.115 431.287C156.996 431.405 156.854 431.498 156.699 431.562C156.543 431.625 156.376 431.656 156.208 431.655C133.783 431.655 118.894 447.387 116.884 465.674H240.953C231.964 474.208 221.446 488.475 215.234 503.118H405.215L448.858 650.39H486.937L451.763 533.61L438.002 485.531C449.403 475.752 464.058 470.006 473.591 466.284H306.437C371.882 386.338 430.869 351.177 496.457 320.154C495.679 316.12 495.834 311.892 495.834 308.636C495.834 280.881 517.312 245.824 568.037 245.824C584.781 245.824 603.47 249.157 617.192 259.286C609.164 251.608 582.771 236.369 554.315 236.55C497.871 236.927 463.734 273.242 466.678 313.72C430.648 330.036 368.069 363.498 328.473 395.91H117.026C119.828 415.235 134.588 429.061 156.221 429.061Z" fill="#2F9C5C"/>
<path fill-rule="evenodd" clip-rule="evenodd" d="M572.071 302.06L596.843 289.817C595.461 286.306 593.316 283.145 590.564 280.564C587.812 277.982 584.521 276.044 580.929 274.889L569.451 299.518C568.283 302.177 569.477 303.318 572.071 302.06Z" fill="white"/>
<path fill-rule="evenodd" clip-rule="evenodd" d="M2386.99 548.629C2386.99 604.334 2389.7 650.416 2389.7 650.416H2269.64L2269.28 496.296C2269.28 443.885 2253.56 425.092 2224.85 425.092C2187.25 425.092 2167.93 453.509 2167.93 513.403L2167.71 650.416H2049.83C2053.52 558.694 2049.95 421.006 2047.03 336.132H2153.53C2153.53 336.132 2155.9 348.83 2155.9 369.296L2155.79 381.228C2170.4 361.086 2214.11 326.742 2266.78 329.362C2319.45 332.008 2357.51 357.325 2374.19 391.993C2383.65 411.655 2386.45 441.395 2387.1 463.508L2386.99 548.629ZM905.056 610.611C886.781 630.831 845.486 659.546 798.276 656.084C731.767 651.168 679.382 621.376 679.382 523.066L679.641 336.197H798.276L798.341 490.317C798.341 542.702 812.646 561.495 841.361 561.495C878.961 561.495 897.118 527.151 897.118 473.184L897.222 336.197H1014.08C1010.4 427.893 1013.96 565.58 1016.88 650.455H910.373C904.472 640.766 905.056 610.611 905.056 610.611ZM1907.51 610.897C1907.51 638.912 1909.82 650.545 1909.82 650.545H2011.69C2011.69 650.545 2008.86 596.747 2008.81 492.146C2008.81 490.68 2009.34 426.337 2000.92 408.05C1992.52 389.749 1975.01 346.806 1899.98 331.878C1824.95 316.963 1745.29 345.471 1733.47 354.277V431.681C1733.47 431.681 1785.08 403.64 1825.01 403.64C1855.23 403.64 1897.77 405.637 1900.04 449.89C1900.04 449.89 1884.3 449.358 1861.52 449.358C1788.28 449.358 1696.41 463.366 1694.76 552.611C1693.49 622.453 1754.98 654.929 1808.94 653.399C1808.94 653.399 1870.94 656.693 1907.51 610.897Z" fill="#CC2131"/>
<path fill-rule="evenodd" clip-rule="evenodd" d="M1807.08 549.614C1804.64 505.582 1889.98 511.366 1900.81 515.296C1901.3 589.924 1809.78 598.484 1807.08 549.614Z" fill="white"/>
<path fill-rule="evenodd" clip-rule="evenodd" d="M1553.96 496.49C1553.96 444.054 1535.52 425.818 1510.61 425.818C1472.99 425.818 1453.65 453.677 1453.65 513.636L1453.87 650.403H1337.12L1336.9 244.371H1454.44L1454.82 367.973C1474.45 350.568 1509.82 327.546 1552.82 329.699C1605.44 332.332 1672.75 356.624 1672.75 470.019V650.403H1553.96V496.49ZM1301.83 438.23C1259.4 404.133 1156.71 407.66 1156.71 489.318C1156.71 580.34 1267.96 577.824 1310.05 546.8L1313.12 635.941C1253.37 666.926 1037.58 677.509 1037.58 491.03C1037.58 304.447 1250.34 314.032 1309.74 349.621L1301.83 438.23Z" fill="#CC2131"/>
</g>
<defs>
<clipPath id="clip0_665_21">
<rect width="2500" height="853" fill="white"/>
</clipPath>
</defs>
</svg>
