<svg width="1083" height="196" viewBox="0 0 1083 196" fill="none" xmlns="http://www.w3.org/2000/svg">
<path fill-rule="evenodd" clip-rule="evenodd" d="M112.021 40C123.887 40.0041 135.486 43.5267 145.35 50.1223C155.214 56.7179 162.901 66.0904 167.439 77.0546C171.977 88.0188 173.162 100.082 170.844 111.72C168.526 123.358 162.81 134.047 154.417 142.436C146.025 150.824 135.333 156.536 123.695 158.849C112.056 161.162 99.9929 159.972 89.0306 155.429C78.0683 150.887 68.6992 143.195 62.1079 133.328C55.5165 123.461 51.999 111.861 52 99.9948C52 92.114 53.5527 84.3104 56.5693 77.0298C59.586 69.7492 64.0075 63.1343 69.5812 57.5629C75.155 51.9915 81.7719 47.5729 89.0538 44.5594C96.3357 41.5459 104.14 39.9966 112.021 40ZM112.021 52.1029C121.495 52.1039 130.756 54.9145 138.634 60.1791C146.511 65.4438 152.649 72.9261 156.274 81.6798C159.899 90.4335 160.846 100.065 158.996 109.357C157.146 118.65 152.583 127.184 145.882 133.883C139.182 140.581 130.645 145.142 121.353 146.989C112.06 148.835 102.428 147.885 93.6758 144.258C84.9232 140.63 77.443 134.489 72.1809 126.61C66.9188 118.731 64.1112 109.469 64.1133 99.9948C64.114 93.7044 65.3537 87.4758 67.7617 81.6646C70.1697 75.8533 73.6988 70.5734 78.1475 66.1261C82.5962 61.6789 87.8774 58.1515 93.6894 55.7454C99.5014 53.3392 105.73 52.1015 112.021 52.1029ZM124.617 111.864C126.262 110.118 128.532 109.096 130.93 109.024C133.327 108.952 135.655 109.835 137.401 111.479C139.147 113.124 140.169 115.394 140.241 117.791C140.313 120.189 139.43 122.517 137.786 124.263C133.364 128.993 127.734 132.424 121.503 134.184C115.273 135.945 108.68 135.968 102.437 134.252C96.1943 132.535 90.5397 129.144 86.0851 124.446C81.6305 119.748 78.5455 113.921 77.1638 107.595C75.7821 101.27 76.1564 94.6875 78.2461 88.5596C80.3358 82.4317 84.0614 76.9919 89.0198 72.8287C93.9782 68.6655 99.9807 65.9375 106.378 64.9397C112.775 63.9419 119.323 64.7124 125.314 67.1678C129.57 68.9184 133.451 71.4693 136.746 74.6821C138.455 76.3629 139.427 78.6537 139.447 81.0506C139.466 83.4475 138.533 85.7542 136.853 87.4632C135.172 89.1722 132.881 90.1435 130.484 90.1635C128.087 90.1835 125.781 89.2505 124.072 87.5697C122.472 85.9767 120.571 84.719 118.48 83.8703C116.388 83.0217 114.148 82.5993 111.891 82.6277C109.004 82.6218 106.16 83.3348 103.618 84.7026C101.075 86.0704 98.9129 88.0498 97.3265 90.4622C95.7402 92.8746 94.7796 95.6441 94.5314 98.5206C94.2831 101.397 94.7551 104.29 95.9047 106.939C97.0543 109.587 98.8453 111.908 101.116 113.691C103.387 115.474 106.066 116.664 108.912 117.152C111.757 117.641 114.68 117.414 117.415 116.49C120.151 115.567 122.614 113.977 124.581 111.864H124.617ZM112.021 93.3379C113.34 93.3369 114.63 93.7273 115.727 94.4598C116.825 95.1922 117.68 96.2338 118.185 97.4526C118.69 98.6713 118.822 100.013 118.565 101.307C118.307 102.6 117.672 103.789 116.739 104.721C115.805 105.654 114.616 106.289 113.322 106.545C112.028 106.802 110.687 106.668 109.469 106.162C108.25 105.656 107.209 104.8 106.478 103.702C105.746 102.604 105.357 101.314 105.359 99.9948C105.36 98.2288 106.063 96.5356 107.312 95.2874C108.561 94.0391 110.255 93.3379 112.021 93.3379Z" fill="#E31E24"/>
<path d="M276.332 116.334C277.552 115.141 279.001 114.207 280.592 113.59C282.183 112.973 283.883 112.684 285.588 112.742C287.294 112.799 288.97 113.202 290.516 113.925C292.061 114.649 293.444 115.678 294.581 116.951C295.718 118.224 296.585 119.714 297.13 121.331C297.675 122.948 297.887 124.659 297.752 126.36C297.618 128.061 297.14 129.718 296.347 131.229C295.555 132.741 294.464 134.076 293.142 135.154C283.852 143.282 271.774 147.493 259.445 146.905C247.115 146.316 235.494 140.973 227.02 131.998C218.547 123.022 213.881 111.112 214.002 98.7695C214.124 86.4267 219.023 74.6111 227.672 65.8041C236.358 57.11 248.068 52.11 260.355 51.8491C272.642 51.5882 284.554 56.0866 293.602 64.4041C294.82 65.5203 295.807 66.8656 296.506 68.3633C297.205 69.8609 297.602 71.4815 297.674 73.1325C297.746 74.7835 297.493 76.4327 296.928 77.9857C296.363 79.5388 295.498 80.9654 294.382 82.1841C293.265 83.4027 291.92 84.3896 290.422 85.0883C288.925 85.7871 287.304 86.184 285.653 86.2564C284.002 86.3289 282.353 86.0754 280.8 85.5105C279.247 84.9456 277.82 84.0803 276.602 82.9641C274.569 81.0737 272.193 79.5903 269.602 78.5941C266.192 77.2735 262.512 76.8043 258.881 77.2272C255.249 77.6502 251.776 78.9525 248.761 81.0213C245.747 83.09 243.283 85.8628 241.582 89.0992C239.881 92.3356 238.995 95.938 239.002 99.5941C239.002 103.23 239.885 106.811 241.574 110.03C243.264 113.249 245.71 116.01 248.702 118.075C251.694 120.141 255.142 121.449 258.751 121.888C262.36 122.327 266.022 121.883 269.422 120.594C271.961 119.598 274.301 118.155 276.332 116.334ZM355.122 51.8241C366.163 51.8217 376.864 55.6477 385.402 62.6503C393.939 69.6528 399.784 79.3988 401.942 90.2277C404.099 101.057 402.436 112.299 397.234 122.039C392.033 131.779 383.615 139.414 373.415 143.643C363.216 147.873 351.865 148.436 341.298 145.235C330.73 142.035 321.598 135.269 315.459 126.091C309.32 116.914 306.553 105.891 307.629 94.9019C308.705 83.9126 313.559 73.6365 321.362 65.8241C325.785 61.3756 331.046 57.8478 336.84 55.4448C342.635 53.0418 348.848 51.8112 355.122 51.8241ZM371.002 83.6741C367.327 79.9925 362.489 77.6994 357.312 77.1855C352.136 76.6717 346.942 77.9688 342.615 80.856C338.288 83.7431 335.096 88.0415 333.583 93.0185C332.07 97.9955 332.331 103.343 334.319 108.15C336.308 112.956 339.902 116.925 344.489 119.378C349.076 121.831 354.371 122.618 359.473 121.604C364.575 120.59 369.168 117.839 372.468 113.818C375.768 109.797 377.572 104.756 377.572 99.5541C377.58 96.6043 377.004 93.6821 375.876 90.9564C374.748 88.2307 373.092 85.7555 371.002 83.6741ZM412.312 95.8441V93.6641C412.317 92.8489 412.394 92.0358 412.542 91.2341C413.76 80.0635 419.206 69.7824 427.763 62.4991C436.32 55.2158 447.339 51.4823 458.561 52.0643C469.783 52.6462 480.356 57.4994 488.114 65.6288C495.872 73.7581 500.225 84.5474 500.282 95.7841V134.914C500.282 138.266 498.95 141.481 496.579 143.852C494.209 146.222 490.994 147.554 487.642 147.554C484.289 147.554 481.074 146.222 478.704 143.852C476.333 141.481 475.002 138.266 475.002 134.914V95.7841C474.901 90.8974 472.892 86.2441 469.405 82.8195C465.917 79.395 461.228 77.4711 456.341 77.4593C451.453 77.4475 446.755 79.3489 443.251 82.7566C439.747 86.1644 437.716 90.8079 437.592 95.6941V134.914C437.592 138.266 436.26 141.481 433.889 143.852C431.519 146.222 428.304 147.554 424.952 147.554C421.599 147.554 418.384 146.222 416.014 143.852C413.643 141.481 412.312 138.266 412.312 134.914V95.8441ZM511.042 77.1541C507.689 77.1541 504.474 75.8223 502.104 73.4519C499.733 71.0814 498.402 67.8664 498.402 64.5141C498.402 61.1617 499.733 57.9467 502.104 55.5762C504.474 53.2058 507.689 51.8741 511.042 51.8741H565.262C568.614 51.8741 571.829 53.2058 574.199 55.5762C576.57 57.9467 577.902 61.1617 577.902 64.5141C577.902 67.8664 576.57 71.0814 574.199 73.4519C571.829 75.8223 568.614 77.1541 565.262 77.1541H550.782V134.964C550.782 138.316 549.45 141.531 547.079 143.902C544.709 146.272 541.494 147.604 538.142 147.604C534.789 147.604 531.574 146.272 529.204 143.902C526.833 141.531 525.502 138.316 525.502 134.964V77.1541H511.042ZM589.172 64.5141C589.172 61.1617 590.503 57.9467 592.874 55.5762C595.244 53.2058 598.459 51.8741 601.812 51.8741C605.164 51.8741 608.379 53.2058 610.749 55.5762C613.12 57.9467 614.452 61.1617 614.452 64.5141V134.964C614.452 138.316 613.12 141.531 610.749 143.902C608.379 146.272 605.164 147.604 601.812 147.604C598.459 147.604 595.244 146.272 592.874 143.902C590.503 141.531 589.172 138.316 589.172 134.964V64.5141ZM629.672 95.8441V93.6641C629.676 92.8484 629.756 92.0348 629.912 91.2341C631.087 80.0272 636.517 69.6983 645.083 62.3767C653.648 55.0551 664.696 51.2989 675.95 51.8823C687.203 52.4657 697.804 57.3444 705.566 65.5125C713.329 73.6807 717.662 84.5157 717.672 95.7841V134.914C717.672 138.266 716.34 141.481 713.969 143.852C711.599 146.222 708.384 147.554 705.032 147.554C701.679 147.554 698.464 146.222 696.094 143.852C693.723 141.481 692.392 138.266 692.392 134.914V95.7841C692.291 90.8974 690.282 86.2441 686.795 82.8195C683.307 79.395 678.618 77.4711 673.731 77.4593C668.843 77.4475 664.145 79.3489 660.641 82.7566C657.137 86.1644 655.106 90.8079 654.982 95.6941V134.914C654.982 138.266 653.65 141.481 651.279 143.852C648.909 146.222 645.694 147.554 642.342 147.554C638.989 147.554 635.774 146.222 633.404 143.852C631.033 141.481 629.702 138.266 629.702 134.914L629.672 95.8441ZM810.672 95.8441V93.6641C810.676 92.8484 810.756 92.0348 810.912 91.2341C812.087 80.0272 817.517 69.6983 826.083 62.3767C834.648 55.0551 845.697 51.2989 856.95 51.8823C868.203 52.4657 878.803 57.3444 886.566 65.5125C894.329 73.6807 898.662 84.5157 898.672 95.7841V134.914C898.672 138.266 897.34 141.481 894.969 143.852C892.599 146.222 889.384 147.554 886.032 147.554C882.679 147.554 879.464 146.222 877.094 143.852C874.723 141.481 873.392 138.266 873.392 134.914V95.7841C873.291 90.8974 871.282 86.2441 867.795 82.8195C864.307 79.395 859.618 77.4711 854.731 77.4593C849.843 77.4475 845.145 79.3489 841.641 82.7566C838.137 86.1644 836.106 90.8079 835.982 95.6941V134.914C835.982 138.266 834.65 141.481 832.279 143.852C829.909 146.222 826.694 147.554 823.342 147.554C819.989 147.554 816.774 146.222 814.404 143.852C812.033 141.481 810.702 138.266 810.702 134.914L810.672 95.8441ZM755.672 85.0141C756.096 85.4515 756.604 85.7984 757.166 86.0339C757.728 86.2693 758.332 86.3885 758.942 86.3841H785.942C789.294 86.3841 792.509 87.7158 794.879 90.0862C797.25 92.4567 798.582 95.6717 798.582 99.0241C798.582 102.376 797.25 105.591 794.879 107.962C792.509 110.332 789.294 111.664 785.942 111.664H758.942C758.333 111.664 757.73 111.785 757.169 112.021C756.608 112.256 756.099 112.6 755.672 113.034C755.232 113.457 754.884 113.965 754.648 114.527C754.413 115.09 754.295 115.694 754.302 116.304C754.3 116.914 754.419 117.518 754.652 118.081C754.885 118.645 755.227 119.157 755.658 119.588C756.089 120.019 756.601 120.361 757.164 120.594C757.728 120.826 758.332 120.945 758.942 120.944H759.332H785.942C789.294 120.944 792.509 122.276 794.879 124.646C797.25 127.017 798.582 130.232 798.582 133.584C798.582 136.936 797.25 140.151 794.879 142.522C792.509 144.892 789.294 146.224 785.942 146.224H758.942C753.467 146.199 748.105 144.672 743.439 141.81C738.773 138.948 734.981 134.86 732.478 129.992C729.975 125.123 728.856 119.662 729.242 114.201C729.629 108.741 731.507 103.491 734.672 99.0241C731.5 94.5468 729.621 89.2834 729.24 83.8098C728.859 78.3362 729.991 72.8632 732.513 67.99C735.034 63.1167 738.847 59.0309 743.535 56.1796C748.223 53.3284 753.605 51.8216 759.092 51.8241H786.092C789.444 51.8241 792.659 53.1558 795.029 55.5262C797.4 57.8967 798.732 61.1117 798.732 64.4641C798.732 67.8164 797.4 71.0314 795.029 73.4019C792.659 75.7724 789.444 77.1041 786.092 77.1041H759.092C758.482 77.1028 757.878 77.2219 757.314 77.4546C756.751 77.6873 756.239 78.029 755.808 78.4602C755.377 78.8913 755.035 79.4033 754.802 79.9669C754.569 80.5304 754.45 81.1344 754.452 81.7441C754.44 82.3509 754.551 82.9537 754.78 83.5159C755.009 84.0781 755.349 84.5878 755.782 85.0141H755.672ZM913.552 77.1541C910.199 77.1541 906.984 75.8223 904.614 73.4519C902.243 71.0814 900.912 67.8664 900.912 64.5141C900.912 61.1617 902.243 57.9467 904.614 55.5762C906.984 53.2058 910.199 51.8741 913.552 51.8741H967.772C971.124 51.8741 974.339 53.2058 976.709 55.5762C979.08 57.9467 980.412 61.1617 980.412 64.5141C980.412 67.8664 979.08 71.0814 976.709 73.4519C974.339 75.8223 971.124 77.1541 967.772 77.1541H953.282V134.964C953.282 138.316 951.95 141.531 949.579 143.902C947.209 146.272 943.994 147.604 940.642 147.604C937.289 147.604 934.074 146.272 931.704 143.902C929.333 141.531 928.002 138.316 928.002 134.964V77.1541H913.552ZM1012.67 85.0141C1013.1 85.4508 1013.61 85.7973 1014.17 86.0326C1014.74 86.268 1015.34 86.3875 1015.95 86.3841H1042.95C1046.3 86.3841 1049.52 87.7158 1051.89 90.0862C1054.26 92.4567 1055.59 95.6717 1055.59 99.0241C1055.59 102.376 1054.26 105.591 1051.89 107.962C1049.52 110.332 1046.3 111.664 1042.95 111.664H1015.95C1014.72 111.669 1013.55 112.16 1012.68 113.029C1011.81 113.898 1011.32 115.075 1011.31 116.304C1011.32 117.539 1011.81 118.723 1012.67 119.604C1013.55 120.466 1014.72 120.948 1015.95 120.944H1016.36H1042.95C1046.3 120.944 1049.52 122.276 1051.89 124.646C1054.26 127.017 1055.59 130.232 1055.59 133.584C1055.59 136.936 1054.26 140.151 1051.89 142.522C1049.52 144.892 1046.3 146.224 1042.95 146.224H1015.95C1010.46 146.227 1005.08 144.72 1000.4 141.869C995.707 139.017 991.894 134.931 989.373 130.058C986.851 125.185 985.719 119.712 986.1 114.238C986.481 108.765 988.36 103.501 991.532 99.0241C988.36 94.5468 986.481 89.2834 986.1 83.8098C985.719 78.3362 986.851 72.8632 989.373 67.99C991.894 63.1167 995.707 59.0309 1000.4 56.1796C1005.08 53.3284 1010.46 51.8216 1015.95 51.8241H1042.95C1046.3 51.8241 1049.52 53.1558 1051.89 55.5262C1054.26 57.8967 1055.59 61.1117 1055.59 64.4641C1055.59 67.8164 1054.26 71.0314 1051.89 73.4019C1049.52 75.7724 1046.3 77.1041 1042.95 77.1041H1015.95C1015.34 77.1001 1014.74 77.2164 1014.18 77.4464C1013.61 77.6763 1013.1 78.0154 1012.67 78.4441C1011.81 79.3255 1011.32 80.5091 1011.31 81.7441C1011.31 82.9712 1011.8 84.1474 1012.67 85.0141Z" fill="#E31E24"/>
</svg>
